<svg width="92" height="16" viewBox="0 0 92 16" fill="none" xmlns="http://www.w3.org/2000/svg">
<path fill-rule="evenodd" clip-rule="evenodd" d="M12.6897 9.6H3.17241V16H0V0H15.8621V16H12.6897V9.6ZM3.17241 6.4H12.6897V3.2H3.17241V6.4ZM22.2069 6.4H28.5517V3.2H22.2069V6.4ZM19.0345 16V0H31.7241V6.4H34.8966V16H19.0345ZM22.2069 12.8H31.7241V9.60001H22.2069V12.8ZM47.5862 9.6V16H44.4138V9.6H38.069V0H41.2414V6.4H50.7586V0H53.931V9.6H47.5862ZM57.1034 12.8H69.7931V9.6H57.1034V0H72.9655V3.2H60.2759V6.4H72.9655V16H57.1034V12.8ZM76.1379 12.8H88.8276V9.6H76.1379V0H92V3.2H79.3103V6.4H92V16H76.1379V12.8Z" fill="white"/>
</svg>
