<svg width="24" height="24" viewBox="0 0 24 24" fill="none" xmlns="http://www.w3.org/2000/svg">
<path fill-rule="evenodd" clip-rule="evenodd" d="M17.4388 19.7458L6.39021 19.6234C4.54835 19.6029 3.07449 18.2902 3.09756 16.6913L3.23821 6.97781C3.26128 5.37818 4.77384 4.09818 6.61607 4.11828L17.6646 4.24107C19.5065 4.26153 20.9807 5.57428 20.9573 7.17316L20.8166 16.8863C20.7936 18.4859 19.281 19.7663 17.4388 19.7458Z" fill="#A5A5A5"/>
<path fill-rule="evenodd" clip-rule="evenodd" d="M19.1107 16.8736L14.3803 9.87524C14.3371 9.8064 14.2374 9.80529 14.1924 9.87301L10.4424 14.9997C10.3985 15.0659 10.3018 15.0667 10.2571 15.0012L8.20577 12.5751C8.16149 12.5104 8.06586 12.5104 8.02158 12.5751L4.82642 16.6909C4.77619 16.7645 4.82791 16.8646 4.91721 16.8658L19.0147 17.0444C19.1029 17.0455 19.1576 16.9484 19.1107 16.8736Z" fill="white"/>
<path fill-rule="evenodd" clip-rule="evenodd" d="M11.8814 9.6975C11.8698 10.6222 11.1104 11.3622 10.1858 11.3507C9.2611 11.3388 8.52101 10.5797 8.53292 9.65508C8.54445 8.73043 9.30352 7.99034 10.2282 8.00187C11.1528 8.01378 11.8929 8.77285 11.8814 9.6975Z" fill="white"/>
</svg>
