<svg width="24" height="24" viewBox="0 0 24 24" fill="none" xmlns="http://www.w3.org/2000/svg">
<path fill-rule="evenodd" clip-rule="evenodd" d="M12.5 7C13.3284 7 14 6.32843 14 5.5C14 4.67157 13.3284 4 12.5 4C11.6716 4 11 4.67157 11 5.5C11 6.32843 11.6716 7 12.5 7Z" fill="#A5A5A5"/>
<path fill-rule="evenodd" clip-rule="evenodd" d="M12.5 13C13.3284 13 14 12.3284 14 11.5C14 10.6716 13.3284 10 12.5 10C11.6716 10 11 10.6716 11 11.5C11 12.3284 11.6716 13 12.5 13Z" fill="#A5A5A5"/>
<path fill-rule="evenodd" clip-rule="evenodd" d="M12.5 19C13.3284 19 14 18.3284 14 17.5C14 16.6716 13.3284 16 12.5 16C11.6716 16 11 16.6716 11 17.5C11 18.3284 11.6716 19 12.5 19Z" fill="#A5A5A5"/>
</svg>
