<svg id="圖層_1" data-name="圖層 1" xmlns="http://www.w3.org/2000/svg" viewBox="0 0 1024 1024"><defs><style>.cls-1{fill:none;stroke:#000;stroke-linecap:round;stroke-width:35.06px;}</style></defs><title>AbyssLogo</title><path id="Shape" class="cls-1" d="M520.76,127.73,153,788.79,861.73,616.58Z"/><path d="M702.4,553.39a192.14,192.14,0,0,0-.31-50.58,187.8,187.8,0,0,0-13.2-47.63,182.7,182.7,0,0,0-24.61-41.51,178.53,178.53,0,0,0-33.77-32.83,174.22,174.22,0,0,0-40.17-22.27,169.33,169.33,0,0,0-43.48-10.7,165.4,165.4,0,0,0-43.61,1.05A160.29,160.29,0,0,0,462.56,361a155.85,155.85,0,0,0-35.1,21.77,151.5,151.5,0,0,0-27.35,29.37A146.68,146.68,0,0,0,382,446.7a144,144,0,0,0-8.15,36.95,139.58,139.58,0,0,0,1.83,36.63A135.34,135.34,0,0,0,386.75,554a131.1,131.1,0,0,0,19,28.67,126.15,126.15,0,0,0,25,21.85,121.43,121.43,0,0,0,28.91,13.93A116.69,116.69,0,0,0,490.13,624a111.9,111.9,0,0,0,29.69-2.69,107.88,107.88,0,0,0,26.83-10.14,103,103,0,0,0,22.2-16.31,98.25,98.25,0,0,0,16.3-20.8,93.78,93.78,0,0,0,9.63-23.41,89,89,0,0,0,2.76-24,85.46,85.46,0,0,0-3.75-22.81,81,81,0,0,0-9.44-19.9,76.43,76.43,0,0,0-13.9-15.68,71.48,71.48,0,0,0-16.88-10.57,67.53,67.53,0,0,0-18.21-5.05,63,63,0,0,0-17.9.45,58.93,58.93,0,0,0-16.09,5.44,55.08,55.08,0,0,0-13,9.58,51.52,51.52,0,0,0-8.84,12.56,47.45,47.45,0,0,0-4,14.17A43.71,43.71,0,0,0,476.73,509a40.43,40.43,0,0,0,6.39,12.56,30.91,30.91,0,0,0,25.3,11.86c3-.12,5.08-.74,9.88-2.36a20,20,0,0,0,1.75-37.22,19.73,19.73,0,0,1,4.18-1.4,23.36,23.36,0,0,1,6-.19,27.43,27.43,0,0,1,7,1.9,32,32,0,0,1,7.19,4.46,36.54,36.54,0,0,1,6.43,7.19,41.15,41.15,0,0,1,4.67,9.77,45.42,45.42,0,0,1,2,11.84,50.3,50.3,0,0,1-1.47,13.09,54,54,0,0,1-5.44,13.29,58.64,58.64,0,0,1-9.54,12.24,63.48,63.48,0,0,1-13.44,9.9,68.11,68.11,0,0,1-16.7,6.34A71.44,71.44,0,0,1,492,584.06a76.15,76.15,0,0,1-19.88-3.58,80.82,80.82,0,0,1-19.26-9.25,85.77,85.77,0,0,1-17-14.8,90.41,90.41,0,0,1-13.1-19.74A94.82,94.82,0,0,1,415,513.07a99.75,99.75,0,0,1-1.32-26,104.32,104.32,0,0,1,5.84-26.57,108.36,108.36,0,0,1,13.17-25.12,113,113,0,0,1,20.11-21.63,117.38,117.38,0,0,1,26.08-16.19,122.37,122.37,0,0,1,30.53-9.12,125.1,125.1,0,0,1,33-.81,129.37,129.37,0,0,1,33.22,8.15,133.94,133.94,0,0,1,30.94,17.14,138.55,138.55,0,0,1,26.22,25.45,143.09,143.09,0,0,1,19.23,32.43,147.1,147.1,0,0,1,10.4,37.46,151.3,151.3,0,0,1,.26,40,156.68,156.68,0,0,1-10.5,39.85,161.28,161.28,0,0,1-21.13,36.73,165.41,165.41,0,0,1-30.82,30.78q-7,5.37-14.53,10L665,646.35a201.78,201.78,0,0,0,24.23-42.93A197,197,0,0,0,702.4,553.39Z"/><path d="M767.84,571.4a265.47,265.47,0,0,1-14.68,53.52l46-11.18a308.71,308.71,0,0,0,8.14-35.82c.39-2.38.75-4.78,1.08-7.17L771,517.1A258.88,258.88,0,0,1,767.84,571.4Z"/><path d="M504.26,281a233,233,0,0,1,61.07,1.52,238.64,238.64,0,0,1,52.07,14.43l-36.48-52.29q-4.63-.9-9.31-1.65a273,273,0,0,0-71.55-1.79q-12.29,1.31-24.45,3.76L448.16,294.3A228.5,228.5,0,0,1,504.26,281Z"/><path d="M187.84,762.29l.32-.07L188,762Z"/><path d="M263.4,743.93l47.23-11.47c-.76-.62-1.52-1.23-2.27-1.86A300.5,300.5,0,0,1,255,672.88q-5-7-9.46-14.25l-21.84,39.25A338.56,338.56,0,0,0,263.4,743.93Z"/><path d="M470.06,689.25a183.65,183.65,0,0,1-46.47-12.88,188,188,0,0,1-42.52-25.15A192.46,192.46,0,0,1,345.76,615a196.92,196.92,0,0,1-25.24-45.15,203.4,203.4,0,0,1-9.18-29.62l-26.6,47.83a237.17,237.17,0,0,0,28.94,50.83,231.76,231.76,0,0,0,42.64,43.71,227.16,227.16,0,0,0,45.28,27.71L483,690.57C478.67,690.28,474.34,689.86,470.06,689.25Z"/></svg>